<svg width="201" height="23" viewBox="0 0 201 23" fill="none" xmlns="http://www.w3.org/2000/svg">
<path d="M7.32 22L0.51 0.819999H5.19L10.17 17.11H8.34L13.2 0.819999H16.89L21.75 17.11H19.95L24.9 0.819999H29.55L22.74 22H19.05L14.16 5.71H15.9L11.01 22H7.32ZM36.9743 22.33C35.3943 22.33 33.9843 22.01 32.7443 21.37C31.5243 20.71 30.5643 19.8 29.8643 18.64C29.1643 17.48 28.8143 16.17 28.8143 14.71C28.8143 13.25 29.1543 11.95 29.8343 10.81C30.5343 9.65 31.4743 8.74 32.6543 8.08C33.8343 7.42 35.1643 7.09 36.6443 7.09C38.0843 7.09 39.3543 7.4 40.4543 8.02C41.5543 8.64 42.4143 9.5 43.0343 10.6C43.6743 11.7 43.9943 12.96 43.9943 14.38C43.9943 14.64 43.9743 14.92 43.9343 15.22C43.9143 15.5 43.8643 15.83 43.7843 16.21L31.2143 16.24V13.09L41.8343 13.06L39.8543 14.38C39.8343 13.54 39.7043 12.85 39.4643 12.31C39.2243 11.75 38.8643 11.33 38.3843 11.05C37.9243 10.75 37.3543 10.6 36.6743 10.6C35.9543 10.6 35.3243 10.77 34.7843 11.11C34.2643 11.43 33.8543 11.89 33.5543 12.49C33.2743 13.09 33.1343 13.82 33.1343 14.68C33.1343 15.54 33.2843 16.28 33.5843 16.9C33.9043 17.5 34.3443 17.97 34.9043 18.31C35.4843 18.63 36.1643 18.79 36.9443 18.79C37.6643 18.79 38.3143 18.67 38.8943 18.43C39.4743 18.17 39.9843 17.79 40.4243 17.29L42.9443 19.81C42.2243 20.65 41.3543 21.28 40.3343 21.7C39.3143 22.12 38.1943 22.33 36.9743 22.33ZM46.2098 22V0.22H50.7998V22H46.2098ZM61.0821 22.33C59.5821 22.33 58.2221 22 57.0021 21.34C55.7821 20.68 54.8221 19.77 54.1221 18.61C53.4221 17.45 53.0721 16.15 53.0721 14.71C53.0721 13.25 53.4221 11.95 54.1221 10.81C54.8421 9.65 55.8121 8.74 57.0321 8.08C58.2521 7.42 59.6221 7.09 61.1421 7.09C62.2821 7.09 63.3221 7.29 64.2621 7.69C65.2221 8.07 66.0721 8.65 66.8121 9.43L63.8721 12.37C63.5321 11.99 63.1321 11.71 62.6721 11.53C62.2321 11.35 61.7221 11.26 61.1421 11.26C60.4821 11.26 59.8921 11.41 59.3721 11.71C58.8721 11.99 58.4721 12.39 58.1721 12.91C57.8921 13.41 57.7521 14 57.7521 14.68C57.7521 15.36 57.8921 15.96 58.1721 16.48C58.4721 17 58.8821 17.41 59.4021 17.71C59.9221 18.01 60.5021 18.16 61.1421 18.16C61.7421 18.16 62.2721 18.06 62.7321 17.86C63.2121 17.64 63.6221 17.34 63.9621 16.96L66.8721 19.9C66.1121 20.7 65.2521 21.31 64.2921 21.73C63.3321 22.13 62.2621 22.33 61.0821 22.33ZM75.5834 22.33C74.0834 22.33 72.7234 22 71.5034 21.34C70.3034 20.66 69.3534 19.74 68.6534 18.58C67.9534 17.42 67.6034 16.12 67.6034 14.68C67.6034 13.24 67.9534 11.95 68.6534 10.81C69.3534 9.67 70.3034 8.77 71.5034 8.11C72.7034 7.43 74.0634 7.09 75.5834 7.09C77.1034 7.09 78.4634 7.42 79.6634 8.08C80.8634 8.74 81.8134 9.65 82.5134 10.81C83.2134 11.95 83.5634 13.24 83.5634 14.68C83.5634 16.12 83.2134 17.42 82.5134 18.58C81.8134 19.74 80.8634 20.66 79.6634 21.34C78.4634 22 77.1034 22.33 75.5834 22.33ZM75.5834 18.16C76.2434 18.16 76.8234 18.02 77.3234 17.74C77.8234 17.44 78.2034 17.03 78.4634 16.51C78.7434 15.97 78.8834 15.36 78.8834 14.68C78.8834 14 78.7434 13.41 78.4634 12.91C78.1834 12.39 77.7934 11.99 77.2934 11.71C76.8134 11.41 76.2434 11.26 75.5834 11.26C74.9434 11.26 74.3734 11.41 73.8734 11.71C73.3734 11.99 72.9834 12.39 72.7034 12.91C72.4234 13.43 72.2834 14.03 72.2834 14.71C72.2834 15.37 72.4234 15.97 72.7034 16.51C72.9834 17.03 73.3734 17.44 73.8734 17.74C74.3734 18.02 74.9434 18.16 75.5834 18.16ZM85.8485 22V7.42H90.4385V22H85.8485ZM95.1785 22V13.48C95.1785 12.74 94.9485 12.17 94.4885 11.77C94.0485 11.35 93.4985 11.14 92.8385 11.14C92.3785 11.14 91.9685 11.24 91.6085 11.44C91.2485 11.62 90.9585 11.88 90.7385 12.22C90.5385 12.56 90.4385 12.98 90.4385 13.48L88.6685 12.7C88.6685 11.54 88.9185 10.55 89.4185 9.73C89.9185 8.89 90.5985 8.25 91.4585 7.81C92.3185 7.35 93.2885 7.12 94.3685 7.12C95.3885 7.12 96.2985 7.35 97.0985 7.81C97.9185 8.27 98.5685 8.91 99.0485 9.73C99.5285 10.55 99.7685 11.53 99.7685 12.67V22H95.1785ZM104.509 22V13.48C104.509 12.74 104.279 12.17 103.819 11.77C103.379 11.35 102.829 11.14 102.169 11.14C101.709 11.14 101.299 11.24 100.939 11.44C100.579 11.62 100.289 11.88 100.069 12.22C99.8685 12.56 99.7685 12.98 99.7685 13.48L97.1285 13.12C97.1685 11.88 97.4585 10.82 97.9985 9.94C98.5585 9.04 99.2885 8.35 100.189 7.87C101.109 7.37 102.139 7.12 103.279 7.12C104.399 7.12 105.389 7.36 106.249 7.84C107.129 8.3 107.819 8.97 108.319 9.85C108.839 10.71 109.099 11.75 109.099 12.97V22H104.509ZM119.24 22.33C117.66 22.33 116.25 22.01 115.01 21.37C113.79 20.71 112.83 19.8 112.13 18.64C111.43 17.48 111.08 16.17 111.08 14.71C111.08 13.25 111.42 11.95 112.1 10.81C112.8 9.65 113.74 8.74 114.92 8.08C116.1 7.42 117.43 7.09 118.91 7.09C120.35 7.09 121.62 7.4 122.72 8.02C123.82 8.64 124.68 9.5 125.3 10.6C125.94 11.7 126.26 12.96 126.26 14.38C126.26 14.64 126.24 14.92 126.2 15.22C126.18 15.5 126.13 15.83 126.05 16.21L113.48 16.24V13.09L124.1 13.06L122.12 14.38C122.1 13.54 121.97 12.85 121.73 12.31C121.49 11.75 121.13 11.33 120.65 11.05C120.19 10.75 119.62 10.6 118.94 10.6C118.22 10.6 117.59 10.77 117.05 11.11C116.53 11.43 116.12 11.89 115.82 12.49C115.54 13.09 115.4 13.82 115.4 14.68C115.4 15.54 115.55 16.28 115.85 16.9C116.17 17.5 116.61 17.97 117.17 18.31C117.75 18.63 118.43 18.79 119.21 18.79C119.93 18.79 120.58 18.67 121.16 18.43C121.74 18.17 122.25 17.79 122.69 17.29L125.21 19.81C124.49 20.65 123.62 21.28 122.6 21.7C121.58 22.12 120.46 22.33 119.24 22.33ZM138.208 22V18.34H143.188C144.108 18.34 144.828 18.07 145.348 17.53C145.868 16.99 146.128 16.33 146.128 15.55C146.128 15.01 146.008 14.53 145.768 14.11C145.528 13.69 145.188 13.36 144.748 13.12C144.328 12.88 143.808 12.76 143.188 12.76H138.208V9.19H142.798C143.578 9.19 144.208 9 144.688 8.62C145.168 8.22 145.408 7.62 145.408 6.82C145.408 6.04 145.168 5.46 144.688 5.08C144.208 4.68 143.578 4.48 142.798 4.48H138.208V0.819999H143.698C145.058 0.819999 146.208 1.07 147.148 1.57C148.108 2.07 148.838 2.74 149.338 3.58C149.838 4.42 150.088 5.35 150.088 6.37C150.088 7.67 149.668 8.77 148.828 9.67C147.988 10.57 146.748 11.19 145.108 11.53L145.228 9.94C147.008 10.28 148.378 10.97 149.338 12.01C150.318 13.05 150.808 14.33 150.808 15.85C150.808 17.01 150.518 18.06 149.938 19C149.378 19.92 148.558 20.65 147.478 21.19C146.418 21.73 145.138 22 143.638 22H138.208ZM134.608 22V0.819999H139.258V22H134.608ZM159.497 22.3C158.157 22.3 156.957 21.97 155.897 21.31C154.857 20.65 154.027 19.75 153.407 18.61C152.807 17.47 152.507 16.17 152.507 14.71C152.507 13.25 152.807 11.95 153.407 10.81C154.027 9.67 154.857 8.77 155.897 8.11C156.957 7.45 158.157 7.12 159.497 7.12C160.477 7.12 161.357 7.31 162.137 7.69C162.937 8.07 163.587 8.6 164.087 9.28C164.587 9.94 164.867 10.7 164.927 11.56V17.86C164.867 18.72 164.587 19.49 164.087 20.17C163.607 20.83 162.967 21.35 162.167 21.73C161.367 22.11 160.477 22.3 159.497 22.3ZM160.427 18.16C161.407 18.16 162.197 17.84 162.797 17.2C163.397 16.54 163.697 15.71 163.697 14.71C163.697 14.03 163.557 13.43 163.277 12.91C163.017 12.39 162.637 11.99 162.137 11.71C161.657 11.41 161.097 11.26 160.457 11.26C159.817 11.26 159.247 11.41 158.747 11.71C158.267 11.99 157.877 12.39 157.577 12.91C157.297 13.43 157.157 14.03 157.157 14.71C157.157 15.37 157.297 15.96 157.577 16.48C157.857 17 158.247 17.41 158.747 17.71C159.247 18.01 159.807 18.16 160.427 18.16ZM163.517 22V18.07L164.207 14.53L163.517 10.99V7.42H168.017V22H163.517ZM178.299 22.33C176.799 22.33 175.439 22 174.219 21.34C172.999 20.68 172.039 19.77 171.339 18.61C170.639 17.45 170.289 16.15 170.289 14.71C170.289 13.25 170.639 11.95 171.339 10.81C172.059 9.65 173.029 8.74 174.249 8.08C175.469 7.42 176.839 7.09 178.359 7.09C179.499 7.09 180.539 7.29 181.479 7.69C182.439 8.07 183.289 8.65 184.029 9.43L181.089 12.37C180.749 11.99 180.349 11.71 179.889 11.53C179.449 11.35 178.939 11.26 178.359 11.26C177.699 11.26 177.109 11.41 176.589 11.71C176.089 11.99 175.689 12.39 175.389 12.91C175.109 13.41 174.969 14 174.969 14.68C174.969 15.36 175.109 15.96 175.389 16.48C175.689 17 176.099 17.41 176.619 17.71C177.139 18.01 177.719 18.16 178.359 18.16C178.959 18.16 179.489 18.06 179.949 17.86C180.429 17.64 180.839 17.34 181.179 16.96L184.089 19.9C183.329 20.7 182.469 21.31 181.509 21.73C180.549 22.13 179.479 22.33 178.299 22.33ZM195.462 22L190.362 14.44L195.432 7.42H200.562L194.442 15.31L194.592 13.42L200.862 22H195.462ZM186.132 22V0.22H190.722V22H186.132Z" fill="#464444"/>
</svg>
